<svg width="707" height="467" viewBox="0 0 707 467" fill="none" xmlns="http://www.w3.org/2000/svg">
<path d="M680.448 44.07C682.06 46.8628 681.577 50.9293 678.874 56.2704C676.184 61.5844 671.368 68.0149 664.6 75.4114C651.069 90.199 629.819 108.757 602.457 129.839C547.74 172 468.644 224.205 378.14 276.457C287.636 328.71 202.877 371.106 139.006 397.413C107.068 410.568 80.3709 419.692 60.7988 424.016C51.0091 426.18 43.0321 427.135 37.0853 426.807C31.1082 426.478 27.3449 424.863 25.7325 422.07C24.1201 419.277 24.6033 415.211 27.3064 409.87C29.9958 404.556 34.8119 398.125 41.5801 390.729C55.1115 375.941 76.3611 357.383 103.723 336.301C158.441 294.141 237.537 241.935 328.041 189.683C418.544 137.431 503.303 95.0338 567.174 68.727C599.113 55.5721 625.809 46.4485 645.381 42.1237C655.171 39.9605 663.148 39.005 669.095 39.3329C675.072 39.6625 678.835 41.2773 680.448 44.07Z" stroke="url(#paint0_linear_72_3)"/>
<path fill-rule="evenodd" clip-rule="evenodd" d="M617.34 116.955L624.792 157.287L621.387 116.479L655.269 139.793L623.706 113.092L664.287 105.594L623.366 109.008L646.441 75.474L620.083 106.631L612.594 66.0991L616.027 107.24L582.164 83.9389L613.382 110.349L573.099 117.792L614.126 114.369L590.587 148.579L617.34 116.955Z" fill="#005DB4"/>
<defs>
<linearGradient id="paint0_linear_72_3" x1="25.2995" y1="422.32" x2="680.881" y2="43.82" gradientUnits="userSpaceOnUse">
<stop stop-color="white"/>
<stop offset="1" stop-color="white" stop-opacity="0.38"/>
</linearGradient>
</defs>
</svg>
