<svg width="658" height="390" viewBox="0 0 658 390" fill="none" xmlns="http://www.w3.org/2000/svg">
<path d="M656.448 6.07004C658.06 8.86282 657.577 12.9293 654.874 18.2704C652.184 23.5844 647.368 30.0149 640.6 37.4114C627.069 52.199 605.819 70.7572 578.457 91.8395C523.74 134 444.644 186.205 354.14 238.457C263.636 290.71 178.877 333.106 115.006 359.413C83.0675 372.568 56.3709 381.692 36.7988 386.016C27.0091 388.18 19.0321 389.135 13.0853 388.807C7.10822 388.478 3.34494 386.863 1.73253 384.07C0.12012 381.277 0.603328 377.211 3.30644 371.87C5.99582 366.556 10.8119 360.125 17.5801 352.729C31.1115 337.941 52.3611 319.383 79.7229 298.301C134.441 256.141 213.537 203.935 304.041 151.683C394.544 99.4306 479.303 57.0338 543.174 30.727C575.113 17.5721 601.809 8.44849 621.381 4.12373C631.171 1.96054 639.148 1.00497 645.095 1.33292C651.072 1.66251 654.835 3.27727 656.448 6.07004Z" stroke="url(#paint0_linear_48_61)"/>
<defs>
<linearGradient id="paint0_linear_48_61" x1="1.29951" y1="384.32" x2="656.881" y2="5.82004" gradientUnits="userSpaceOnUse">
<stop stop-color="white"/>
<stop offset="1" stop-color="white" stop-opacity="0.38"/>
</linearGradient>
</defs>
</svg>
