<svg width="189" height="38" viewBox="0 0 189 38" fill="none" xmlns="http://www.w3.org/2000/svg">
<path fill-rule="evenodd" clip-rule="evenodd" d="M179.97 8.84508C182.158 8.54009 183.685 6.51913 183.38 4.33114C183.075 2.14316 181.054 0.616697 178.866 0.921694C176.678 1.22669 175.151 3.24765 175.456 5.43563C175.761 7.62362 177.782 9.15008 179.97 8.84508ZM174.166 10.6639C174.471 12.8519 172.944 14.8728 170.756 15.1778C168.569 15.4828 166.548 13.9563 166.243 11.7684C165.938 9.58038 167.464 7.55942 169.652 7.25443C171.84 6.94943 173.861 8.47589 174.166 10.6639ZM187.713 16.0359C188.171 19.3178 185.881 22.3493 182.599 22.8068C179.317 23.2643 176.286 20.9746 175.828 17.6926C175.371 14.4106 177.661 11.3792 180.943 10.9217C184.225 10.4642 187.256 12.7539 187.713 16.0359Z" fill="#005DB4"/>
<path fill-rule="evenodd" clip-rule="evenodd" d="M165.681 13.3745C165.176 13.471 164.678 13.5862 164.187 13.72C162.427 14.2 160.971 14.856 159.819 15.688C158.987 16.296 158.571 17 158.571 17.8C158.571 18.28 158.747 18.744 159.099 19.192C159.643 19.832 160.267 20.152 160.971 20.152C161.547 20.152 162.235 19.928 163.035 19.48C164.923 18.36 167.179 17.8 169.803 17.8C171.563 17.8 172.907 18.2 173.835 19C174.763 19.8 175.227 20.952 175.227 22.456V23.608C173.467 22.36 171.131 21.736 168.219 21.736C164.859 21.736 162.187 22.44 160.203 23.848C158.251 25.256 157.275 27.144 157.275 29.512C157.275 31.08 157.691 32.472 158.523 33.688C159.387 34.872 160.571 35.8 162.075 36.472C163.611 37.144 165.371 37.48 167.355 37.48C170.939 37.48 173.643 36.44 175.467 34.36V34.888C175.467 35.72 175.739 36.36 176.283 36.808C176.827 37.256 177.595 37.48 178.587 37.48C179.547 37.48 180.299 37.24 180.843 36.76C181.419 36.28 181.707 35.624 181.707 34.792V23.8805C178.281 23.8053 175.324 21.2905 174.842 17.83C174.646 16.4286 174.884 15.0654 175.453 13.8723C175.165 13.7695 174.869 13.6757 174.565 13.5911C173.831 14.9219 172.496 15.9037 170.869 16.1305C168.665 16.4377 166.598 15.2652 165.681 13.3745ZM1.55199 36.712C2.12799 37.224 2.89599 37.48 3.85599 37.48C4.81599 37.48 5.58399 37.224 6.15999 36.712C6.76799 36.168 7.07199 35.464 7.07199 34.6V14.824C7.07199 12.392 7.51999 10.648 8.41599 9.59199C9.31199 8.50399 10.784 7.96 12.832 7.96C14.656 7.96 16.08 8.568 17.104 9.78399C18.128 11 18.64 12.68 18.64 14.824V34.6C18.64 35.496 18.912 36.2 19.456 36.712C20.032 37.224 20.8 37.48 21.76 37.48C22.72 37.48 23.488 37.224 24.064 36.712C24.64 36.2 24.928 35.496 24.928 34.6V14.824C24.928 12.616 25.424 10.92 26.416 9.736C27.44 8.552 28.88 7.96 30.736 7.96C32.784 7.96 34.256 8.50399 35.152 9.59199C36.048 10.648 36.496 12.392 36.496 14.824V34.6C36.496 35.496 36.784 36.2 37.36 36.712C37.936 37.224 38.704 37.48 39.664 37.48C40.624 37.48 41.392 37.224 41.968 36.712C42.576 36.168 42.88 35.464 42.88 34.6V14.824C42.88 11.112 41.824 8.2 39.712 6.08799C37.6 3.97599 34.688 2.91999 30.976 2.91999C29.12 2.91999 27.392 3.35199 25.792 4.21599C24.224 5.08 22.88 6.344 21.76 8.00799C20.608 6.37599 19.232 5.12799 17.632 4.26399C16.064 3.36799 14.384 2.91999 12.592 2.91999C8.87999 2.91999 5.96799 3.97599 3.85599 6.08799C1.74399 8.2 0.687988 11.112 0.687988 14.824V34.6C0.687988 35.496 0.975988 36.2 1.55199 36.712ZM52.1061 36.472C53.6421 37.144 55.4021 37.48 57.3861 37.48C60.9701 37.48 63.6741 36.44 65.4981 34.36V34.888C65.4981 35.72 65.7701 36.36 66.3141 36.808C66.8581 37.256 67.6261 37.48 68.6181 37.48C69.5781 37.48 70.3301 37.24 70.8741 36.76C71.4501 36.28 71.7381 35.624 71.7381 34.792V22.456C71.7381 19.512 70.6661 17.208 68.5221 15.544C66.4101 13.848 63.4981 13 59.7861 13C57.8341 13 55.9781 13.24 54.2181 13.72C52.4581 14.2 51.0021 14.856 49.8501 15.688C49.0181 16.296 48.6021 17 48.6021 17.8C48.6021 18.28 48.7781 18.744 49.1301 19.192C49.6741 19.832 50.2981 20.152 51.0021 20.152C51.5781 20.152 52.2661 19.928 53.0661 19.48C54.9541 18.36 57.2101 17.8 59.8341 17.8C61.5941 17.8 62.9381 18.2 63.8661 19C64.7941 19.8 65.2581 20.952 65.2581 22.456V23.608C63.4981 22.36 61.1621 21.736 58.2501 21.736C54.8901 21.736 52.2181 22.44 50.2341 23.848C48.2821 25.256 47.3061 27.144 47.3061 29.512C47.3061 31.08 47.7221 32.472 48.5541 33.688C49.4181 34.872 50.6021 35.8 52.1061 36.472ZM63.5781 32.152C62.4581 32.76 60.8901 33.064 58.8741 33.064C57.1781 33.064 55.8661 32.76 54.9381 32.152C54.0101 31.512 53.5461 30.632 53.5461 29.512C53.5461 28.392 54.0101 27.528 54.9381 26.92C55.8981 26.312 57.2421 26.008 58.9701 26.008C60.8901 26.008 62.4261 26.328 63.5781 26.968C64.7301 27.608 65.3061 28.456 65.3061 29.512C65.3061 30.632 64.7301 31.512 63.5781 32.152ZM77.6871 36.712C78.2311 37.224 78.9991 37.48 79.9911 37.48C80.9511 37.48 81.7191 37.224 82.2951 36.712C82.8711 36.2 83.1591 35.496 83.1591 34.6V3.44799C83.1591 2.55199 82.8711 1.84799 82.2951 1.33599C81.7191 0.823994 80.9511 0.567993 79.9911 0.567993C78.9991 0.567993 78.2311 0.823994 77.6871 1.33599C77.1431 1.84799 76.8711 2.55199 76.8711 3.44799V34.6C76.8711 35.496 77.1431 36.2 77.6871 36.712ZM89.5765 9.064C90.3125 9.70399 91.2725 10.024 92.4565 10.024C93.6405 10.024 94.6005 9.70399 95.3365 9.064C96.1045 8.39199 96.4885 7.52799 96.4885 6.47199C96.4885 5.41599 96.1045 4.568 95.3365 3.928C94.6005 3.25599 93.6405 2.91999 92.4565 2.91999C91.2725 2.91999 90.3125 3.25599 89.5765 3.928C88.8725 4.568 88.5205 5.41599 88.5205 6.47199C88.5205 7.52799 88.8725 8.39199 89.5765 9.064ZM90.2005 36.712C90.7445 37.224 91.5125 37.48 92.5045 37.48C93.4645 37.48 94.2325 37.224 94.8085 36.712C95.3845 36.2 95.6725 35.496 95.6725 34.6V15.88C95.6725 14.984 95.3845 14.28 94.8085 13.768C94.2325 13.256 93.4645 13 92.5045 13C91.5125 13 90.7445 13.256 90.2005 13.768C89.6565 14.28 89.3845 14.984 89.3845 15.88V34.6C89.3845 35.496 89.6565 36.2 90.2005 36.712ZM101.711 36.712C102.255 37.224 103.023 37.48 104.015 37.48C104.975 37.48 105.743 37.224 106.319 36.712C106.895 36.2 107.183 35.496 107.183 34.6V26.104C107.183 23.544 107.855 21.56 109.199 20.152C110.543 18.712 112.431 17.992 114.863 17.992C116.463 17.992 117.711 18.504 118.607 19.528C119.503 20.552 119.951 21.976 119.951 23.8V34.6C119.951 35.496 120.223 36.2 120.767 36.712C121.311 37.224 122.079 37.48 123.071 37.48C124.031 37.48 124.799 37.224 125.375 36.712C125.951 36.2 126.239 35.496 126.239 34.6V23.8C126.239 20.472 125.343 17.848 123.551 15.928C121.791 13.976 119.375 13 116.303 13C112.367 13 109.263 14.424 106.991 17.272V15.88C106.991 14.984 106.719 14.28 106.175 13.768C105.631 13.256 104.879 13 103.919 13C102.959 13 102.207 13.256 101.663 13.768C101.151 14.248 100.895 14.952 100.895 15.88V34.6C100.895 35.496 101.167 36.2 101.711 36.712ZM131.243 36.712C131.787 37.224 132.555 37.48 133.547 37.48C134.507 37.48 135.275 37.224 135.851 36.712C136.427 36.2 136.715 35.496 136.715 34.6V28.552L141.467 25.288C143.067 26.184 144.331 27.064 145.259 27.928C146.219 28.76 146.987 29.752 147.563 30.904C148.171 32.056 148.715 33.56 149.195 35.416C149.355 36.088 149.707 36.6 150.251 36.952C150.827 37.304 151.547 37.48 152.411 37.48C153.243 37.48 153.883 37.272 154.331 36.856C154.811 36.408 155.051 35.784 155.051 34.984C155.051 34.728 155.035 34.536 155.003 34.408C154.683 31.848 153.819 29.624 152.411 27.736C151.035 25.848 148.939 24.056 146.123 22.36L153.563 17.752C154.555 17.144 155.051 16.424 155.051 15.592C155.051 15.208 154.923 14.728 154.667 14.152C154.251 13.288 153.579 12.856 152.651 12.856C152.075 12.856 151.435 13.08 150.731 13.528L136.715 22.552V3.44799C136.715 2.55199 136.427 1.84799 135.851 1.33599C135.275 0.823994 134.507 0.567993 133.547 0.567993C132.555 0.567993 131.787 0.823994 131.243 1.33599C130.699 1.84799 130.427 2.55199 130.427 3.44799V34.6C130.427 35.496 130.699 36.2 131.243 36.712ZM173.547 32.152C172.427 32.76 170.859 33.064 168.843 33.064C167.147 33.064 165.835 32.76 164.907 32.152C163.979 31.512 163.515 30.632 163.515 29.512C163.515 28.392 163.979 27.528 164.907 26.92C165.867 26.312 167.211 26.008 168.939 26.008C170.859 26.008 172.395 26.328 173.547 26.968C174.699 27.608 175.275 28.456 175.275 29.512C175.275 30.632 174.699 31.512 173.547 32.152Z" fill="white"/>
</svg>
